<?xml version="1.0" encoding="UTF-8"?>
<svg id="Ebene_1" data-name="Ebene 1" xmlns="http://www.w3.org/2000/svg" viewBox="0 0 985.37 423.85">
  <defs>
    <style>
      .cls-1, .cls-2, .cls-3, .cls-4, .cls-5, .cls-6 {
        stroke: #000;
      }

      .cls-1, .cls-3, .cls-6 {
        fill: none;
      }

      .cls-1, .cls-4, .cls-5, .cls-6 {
        stroke-miterlimit: 10;
      }

      .cls-2 {
        stroke-linejoin: bevel;
      }

      .cls-2, .cls-3 {
        stroke-linecap: round;
        stroke-width: 5px;
      }

      .cls-7 {
        fill: #fbffbb;
      }

      .cls-3 {
        stroke-linejoin: round;
      }

      .cls-4 {
        fill: #fff;
      }

      .cls-6 {
        stroke-width: 2px;
      }

      .cls-8 {
        fill: #bffff1;
      }

      .cls-9 {
        fill: #d88bc8;
      }

      .cls-10 {
        fill: #55b36c;
      }

      .cls-11 {
        fill: #ffde2a;
      }

      .cls-12 {
        fill: #563000;
      }

      .cls-13 {
        fill: #ff9c7a;
      }

      .cls-14 {
        fill: #f0c7cf;
      }
    </style>
  </defs>
  <path class="cls-10" d="M83,350.8c6,5,28.26,19.01,30,20,7,4,19.1,6.02,24,7s14,4,14,9c0,4.47-6,21-6,21l11,4,5-25s3.04-6.94,5-7.33c5-1,34-1,34-1l30-26-147-31,2,26.33-2,3Z"/>
  <path class="cls-9" d="M168.26,254.79s45.59-5.55,61.74,3.68c14,8,43.07,20.1,46,64,2,30-45,69-60,72-11.81,2.36,31-58,2-73s-53.58-24.92-65.29-12.46-13.71,8.46-16.71,12.46,32.26-66.68,32.26-66.68Z"/>
  <path class="cls-14" d="M233.61,276.87c6.14,4.57,12.86,8.89,17.51,15.2,3.17,4.17,5.49,9.04,7.08,13.99,2.54,7.32,3.55,15.28,2.45,22.93,0,0-.3-.03-.3-.03.39-7.67-1.11-15.18-4-22.23-1.83-4.7-4.19-9.05-7.56-12.79-3.28-3.81-6.83-7.34-10.37-10.97-1.77-1.84-3.59-3.72-5.04-5.9l.22-.2h0Z"/>
  <path class="cls-9" d="M135.26,341.57c-5.26.9-16.74-12.9-34,11s-36.26,6.9-42.26,42.9c-1.32,7.89-11,19-21,5-9.74-13.64-29-54-21-76s15.41-33.56,34-41c20-8,38.63-9.59,44-10,13-1,78-8,81,11s14,37,14,39-54.74,18.1-54.74,18.1Z"/>
  <path class="cls-9" d="M86.93,234.9c-3.93-1.43-43.93-3.43-57.93,4.57-12.34,7.05-29,15-29,41,0,16.12,9,29,19,28s-5-3,3-15,25.19-19.14,29.6-7.57,21.33,18,28.4,16.57,19-9,19-9l-12.07-58.57Z"/>
  <path class="cls-14" d="M64.48,263.12c-7.3-.01-15.11.05-22.37.3-9.73.13-20.28.93-27.65,7.98-1.82,1.67-3.44,3.58-4.83,5.65,0,0-.26-.16-.26-.16,5.16-9.71,14.39-14.34,25.01-15.53,7.54-1.13,15.19-1.75,22.74-.34,2.51.42,4.99.98,7.4,1.8l-.05.3h0Z"/>
  <path class="cls-14" d="M78.5,310.97c-3.29,1.47-6.48,2.99-9.47,4.78-3.18,1.35-6.22,3.01-9,5.01-12.67,8.75-15.18,21.7-16.76,36.17-.45,3.52-.82,6.98-1.03,10.5-.67,3.48-1.19,6.99-1.73,10.55-.66-3.54-1.02-7.12-1.26-10.73.21-3.57.6-7.17,1.04-10.68.92-7.13,1.74-14.36,4.41-21.15,3.97-10.48,13.05-18.15,23.13-22.44,3.52-1.04,7.09-1.74,10.68-2h0Z"/>
  <path class="cls-14" d="M41.64,322.03c-2.9,10.53-5.84,21.4-7.71,32.15-1.82,10.88-1.19,22.08,1.71,32.75,0,0-.29.09-.29.09-5-13.27-5.1-27.65-2.75-41.5,1.36-8.32,4.34-16.42,8.75-23.6,0,0,.27.12.27.12h0Z"/>
  <ellipse class="cls-8" cx="228" cy="185.07" rx="23.62" ry="42.16" transform="translate(26.43 398.61) rotate(-85.72)"/>
  <ellipse class="cls-8" cx="234.19" cy="210.59" rx="31.11" ry="55.54" transform="translate(-80.32 227.28) rotate(-45)"/>
  <path class="cls-9" d="M183.06,389.07c-6.06-11.6-51.39-46.49-51.39-46.49,0,0,7.09-18.38,16.08-18.83,8.99-.45,32.76-5.64,32.76-5.64,0,0,25.42,7.74,28.86,16.58s7.84,36.65,6.94,38.7-2.2,36.15-17.88,42.95l-15.38-27.27Z"/>
  <path class="cls-9" d="M151,313.47s23-21,28-23,26.41-.11,48.71,11.21c19.29,9.79,39.01,23.81,46.29,48.79s-14,62-26,62c-10.3,0,6-14-7-35-15.3-24.72-41-33-52.85-35.35-13.95-2.76-43.15-15.65-43.15-15.65l6-13Z"/>
  <path class="cls-12" d="M72.17,304.35c-10.38-14.24-16.89-31.46-17.99-50.15.85.03,1.64-.04,2.32-.23,4.82-1.32,12.34,4.09,14.5,3.5,5.5-1.5,8-20,8-12l-1,12c2-1,25.5,11.5,37,9,4.89-1.06,7-2.76,7-5,0-3,1.5-1.5,2,6,.36,5.37,19.68,8.16,26,5,6-3,17,0,20,4s1.47.73,5,1c6.5.5,8-26,8-19,0,2.83,2,19,3,19,.92,0,4.47-5.14,4.94-7.49.14,1.9.78,5.53,3.06,6.49,2.91,1.23,7.29,1,14,1,9,0,4.99-.11,13-1,9-1,10-2,10-2,0,0,6,0,7,4,.13.5.36.98.67,1.44-4.81,13.75-12.7,26.05-22.84,36.08-1.04,1.04-2.11,2.05-3.2,3.03-2.57,2.32-5.27,4.5-8.09,6.54-.18.13-.37.26-.55.4.11,2.32,3.01,4.51,6.01,7.51,2,2-9,2-17,0-.38-.09-.84-.12-1.36-.09-12.82,6.46-27.3,10.09-42.64,10.09-25.34,0-48.34-9.91-65.38-26.07-2.3-.11-5.32-.35-7.62-.93-9.15-2.29-10.63-6.1-10-6,0,0,2,1,6,0l.17-6.12Z"/>
  <path class="cls-12" d="M213.75,178.95c-26.2-1.36-95.44-5.07-121.76-6.48,15.88-11.93,35.61-19,57.01-19,25.03,0,47.78,9.67,64.75,25.48Z"/>
  <path class="cls-12" d="M191,269.47c0,.15-.01.32-.06.51-.08-1.16.03-1.67.06-.51Z"/>
  <ellipse class="cls-5" cx="122.61" cy="16.83" rx="4.8" ry="15.99" transform="translate(48.04 115.61) rotate(-60.77)"/>
  <ellipse class="cls-5" cx="176.94" cy="26.1" rx="4.8" ry="15.99" transform="translate(65.87 166.29) rotate(-60)"/>
  <g>
    <line class="cls-11" x1="214.5" y1="159.97" x2="222.5" y2="146.97"/>
    <path class="cls-11" d="M222.83,146.77c-2.14,4.7-4.8,9.15-7.91,13.25"/>
    <path class="cls-11" d="M152.73,48.84c-.64.12-1.07.13-1.2.13.4-.05.8-.1,1.2-.13Z"/>
    <path class="cls-11" d="M232.42,145.87c.3-.12.6.18.48.48-.67,1.61-.91,4.4-5.22,6.55-6.17,3.07-4.56,2.27-7.17,3.07-1.48.45-4.28,1.98-.76,2.77,2.79.62-3.03,1.08-4.77,1.19l-.05.09c-10.17,13.4-25.2,23.17-43.07,26.38-27.14,4.88-53.43-6.71-68.6-27.64-2.65-.25-6.86-.74-8.25-1.29-4.77-1.91-13.33-10.16-13.5-10.5.26.4,6,3,11,2,3.92-.78,3.13-3.43,3.01-3.94v-.02c-1.96-4.63-3.43-9.56-4.36-14.72-6.79-37.77,18.34-73.9,56.11-80.69,1.42-.26,2.85-.47,4.27-.63.13,0,.56-.01,1.2-.13.99-.17,2.48-.59,4.13-1.57,2.91-1.73,1.2-4.63.64-6.3-1.26-3.79-3.42-6.94-5.35-8.51-1.93-1.58,7.49,1.14,12.42,6.91,3.93,4.6,5.7,9.13,5.7,9.13,0,0,1.48-5,.11-7.97-.11-.23.15-.46.35-.31,1.24.88,2.77,1.75,4.01,2.82,2.6,2.24,5.81,6.02,7.42,9.22,23.02,7.95,41.19,27.78,45.8,53.45,2.6,14.44.53,28.65-5.13,41.06l-.13.22c.37.02,1.32.03,3.68.05,2.64,0,4.89-.72,6.04-1.17Z"/>
  </g>
  <circle class="cls-5" cx="181.85" cy="96.75" r="13"/>
  <ellipse class="cls-13" cx="195.04" cy="117.33" rx="7.66" ry="4.71" transform="translate(-27.11 67.76) rotate(-18.45)"/>
  <ellipse class="cls-4" cx="189.79" cy="92.44" rx="2.67" ry="4.5" transform="translate(-14.85 144.3) rotate(-40.19)"/>
  <path class="cls-11" d="M191,269.47c0,.15-.01.32-.06.51-.08-1.16.03-1.67.06-.51Z"/>
  <path class="cls-11" d="M242.23,273.62c.03.08.03.16,0,.23-.23.7-1.49,4.48-2.36,7.4-.24.81-.45,1.57-.6,2.16-2.27,9.06-17.27,28.06-23.33,32.5-.04.03-.08.06-.11.08-1.45,1.08-2.48,2.07-3.2,3.03-1.36,1.81-1.63,3.51-1.63,5.45,0,3,2,5-1,4-2.76-.92-4.44-1.96-5.46-2.91-.17-.16-.33-.32-.46-.47-.47-.53-.73-1.01-.88-1.42-.29-.73-.2-1.2-.2-1.2,0,0-3,2-4,2s0-3,0-6,1-10,0-8-3.89,7.34-5,9c-2,3-7,5-8,5s-13-6-21-3c-2.44.91-7.42.24-8.7.05-.18-.03-.3-.18-.3-.36l-.5-8.19c0-.4-.87-.38-1,0-.95,2.69-3.31,8-4,8-1,0-22.5-10.5-29.5-7.5-1.93.82-16.06-1.65-17.82-1.97-.12-.02-.21-.1-.26-.2l-4.96-10.75c-.19-.41-.81-.25-.77.2l.81,9.72-1.1-.25s-.04-.01-.06-.02c-3.95-1.84-8.27-2.75-12.63-2.64-2.62.06-5.56.17-8,.37-.43.02-.84.06-1.23.09-.62.06-1.19.13-1.69.21-.5.07-.94.15-1.29.24-1.55.38-2.92.22-3.58.1-.21-.04-.34-.25-.27-.46.17-.55.38-1.75-.15-3.64-.74-2.67-5.62-9.99-8-15-10.2-21.47-9.49-36.04-9.39-35.73v-.02s3.41-6.7,3.41-6.7c-.02.48-.02.96-.02,1.45,0,1.81.05,3.61.16,5.39.01.19.17.34.36.35.72,0,1.39-.07,1.98-.24,4.82-1.32,12.34,4.09,14.5,3.5,5.5-1.5,8-20,8-12l-.96,11.55c-.02.2.13.38.33.39,3.6.09,25.62,11.45,36.63,9.06,4.89-1.06,7-2.76,7-5,0-3,1.5-1.5,2,6,.36,5.37,19.68,8.16,26,5,6-3,17,0,20,4s1.47.73,5,1c6.5.5,8-26,8-19,0,2.83,2,19,3,19,.76,0,3.32-3.51,4.45-6.06.14-.32.62-.26.68.09.33,1.9,1.11,4.23,2.87,4.97,2.91,1.23,7.29,1,14,1,9,0,4.99-.11,13-1,7.7-.86,9.54-1.71,9.92-1.94.06-.04.13-.06.21-.06.86.03,5.96.34,6.88,4,.13.5.36.98.67,1.44,1.03-2.92,1.91-5.9,2.64-8.94l.92,2.65Z"/>
  <path class="cls-12" d="M248,266.47c-.72,5.79-4.24,9.29-2,16,.74,2.23-3.5,1.14-6.13-1.22-.46-.41-.87-.86-1.2-1.34-.31-.46-.54-.94-.67-1.44-1-4-7-4-7-4,0,0-1,1-10,2-8.01.89-4,1-13,1-6.71,0-11.09.23-14-1-2.28-.96-2.92-4.59-3.06-6.49.05-.19.06-.36.06-.51-.03-1.16-.14-.65-.06.51-.47,2.35-4.02,7.49-4.94,7.49-1,0-3-16.17-3-19,0-7-1.5,19.5-8,19-3.53-.27-2,3-5-1s-14-7-20-4c-6.32,3.16-25.64.37-26-5-.5-7.5-2-9-2-6,0,2.24-2.11,3.94-7,5-11.5,2.5-35-10-37-9l1-12c0-8-2.5,10.5-8,12-2.16.59-9.68-4.82-14.5-3.5-.68.19-1.47.26-2.32.23-1.11-.02-2.33-.2-3.56-.48-5.35-1.21-10.87-4.25-8.62-4.25,5,0,7.3-2.98,7.5-8.5.5-13.5,3.5-23.5,7.97-34.88,9.31-23.71,24.17-34.17,24.17-34.17,0,0,3.88.21,10.35.55,26.32,1.41,95.56,5.12,121.76,6.48,6.34.33,10.16.53,10.25.52.62,0,13.01,14.04,21,39,6.95,21.72,4,40,3,48Z"/>
  <path class="cls-12" d="M191,269.47c0,.15-.01.32-.06.51-.08-1.16.03-1.67.06-.51Z"/>
  <path class="cls-7" d="M102,156.47s13.23,7.55,29.69,10.89c15.31,3.11,23.32,3.35,38.31,2.83,21-.72,38-4.72,38-4.72l4,1c3,1,18.65,10.26,21,13,6,7,0,4-3,3-1.34-.45-3-1-8-1-1.79,0-6.61.68-8,1-2.27.52-3.01-.1-2,2,2.98,6.17,6,9,13,18,.84,1.08-10.51,1.49-13,1-5.64-1.11-11-4-14-6-2.63-1.75-5-3-6-4-.82-.82,3.96,8.16,2,17s-14.16,16.99-14,16c3-18-6-28-9-33-1.75-2.92-3.28-3.7-3.77-1.54-.44,1.97-5.1,7.93-4.23,3.54.37-1.86-3.7-3-5-3-2.17,0,5,21,6,22s-16.48-5.48-22-11c-6-6-10.75-22.11-10-20,3.73,10.41-14.11,17.94-21,19-5.96.92-24.64-.14-20-2,10-4,9.36-13.92,8-18-1-3-2.84-4-6-4q-2,0-5,2c-1.46.97,3.25-7.62,1-8-3.95-.66-16-1-18,0-.78.39,5.63-11.32,15-14,7-2,12.5-2.67,13.82-2.42l2.18.42Z"/>
  <line class="cls-2" x1="125.98" y1="229.52" x2="120.69" y2="201.42"/>
  <line class="cls-2" x1="177.5" y1="206.97" x2="159.92" y2="237.95"/>
  <line class="cls-2" x1="107.49" y1="268.44" x2="115.67" y2="296.94"/>
  <line class="cls-2" x1="162.83" y1="275.3" x2="143.83" y2="302.3"/>
  <ellipse cx="130.17" cy="236.55" rx="4.02" ry="10.65" transform="translate(-108.58 110.45) rotate(-33.34)"/>
  <ellipse cx="152.99" cy="241.21" rx="10.65" ry="4.02" transform="translate(-100.11 108.81) rotate(-30)"/>
  <ellipse cx="119.99" cy="301.21" rx="4.02" ry="10.65" transform="translate(-172.24 160.75) rotate(-42.61)"/>
  <ellipse cx="137.2" cy="304.53" rx="10.65" ry="4.02" transform="translate(-103.13 72.57) rotate(-21.76)"/>
  <circle class="cls-5" cx="134.69" cy="86.61" r="13"/>
  <ellipse class="cls-4" cx="141.9" cy="82.48" rx="2.67" ry="4.5" transform="translate(-19.72 111.04) rotate(-40.19)"/>
  <ellipse class="cls-13" cx="115.94" cy="100.8" rx="4.71" ry="7.66" transform="translate(-36.78 117.56) rotate(-47.27)"/>
  <path class="cls-6" d="M150.79,102.81s.3,3.99,4.14,5.2c4.31,1.35,7.05-3.02,7.05-3.02"/>
  <line class="cls-2" x1="144.79" y1="330.32" x2="118.93" y2="350.85"/>
  <ellipse cx="110.86" cy="348.58" rx="4.02" ry="10.65" transform="translate(-254.14 324.67) rotate(-68.61)"/>
  <line class="cls-2" x1="89.93" y1="310.37" x2="64.07" y2="330.9"/>
  <ellipse cx="56" cy="328.64" rx="4.02" ry="10.65" transform="translate(-270.42 260.92) rotate(-68.61)"/>
  <g>
    <path class="cls-1" d="M215.77,315.74c-1.04,1.04-2.11,2.05-3.2,3.03.72-.96,1.75-1.95,3.2-3.03Z"/>
    <g>
      <path class="cls-1" d="M214.93,159.68s-.05.06-.07.09l.05-.09h.02Z"/>
      <path class="cls-1" d="M222.78,146.52c-.03.07-.07.15-.1.22h-.03l.13-.22Z"/>
      <path class="cls-1" d="M152.67,48.59c-.64.12-1.07.13-1.2.13.4-.05.8-.1,1.2-.13Z"/>
    </g>
    <path class="cls-1" d="M264.75,198.18c3.08-2.96,4.95-6.43,5.23-10.22.98-13.01-17.06-24.96-40.27-26.7-5.81-.44-11.4-.19-16.53.63.58-.7,1.14-1.4,1.68-2.12l.05-.09h.02c1.76-.11,7.53-.57,4.75-1.19-3.52-.79-.71-2.32.76-2.77,2.61-.8,1,0,7.17-3.07,4.32-2.15,4.55-4.94,5.23-6.55.12-.3-.18-.6-.48-.48-1.14.45-3.4,1.18-6.04,1.17-2.28-.02-3.24-.03-3.64-.05h-.04l.13-.22c5.66-12.41,7.73-26.62,5.13-41.06-4.61-25.67-22.78-45.5-45.8-53.45-1.61-3.2-4.82-6.98-7.42-9.22-1.24-1.07-2.76-1.94-4-2.82-.21-.15-.46.08-.35.31,1.37,2.96-.12,7.97-.12,7.97,0,0-1.77-4.53-5.7-9.13-4.92-5.77-14.35-8.49-12.42-6.91,1.93,1.57,4.09,4.72,5.35,8.51.56,1.67,2.27,4.57-.64,6.3-1.65.98-3.14,1.4-4.13,1.57-.64.12-1.07.13-1.2.13-1.42.16-2.85.37-4.27.63-37.77,6.79-62.9,42.92-56.11,80.69.93,5.16,2.4,10.09,4.36,14.72v.02c.12.51.91,3.16-3.01,3.94-4.85.97-10.39-1.44-10.96-1.95.59.71,7.19,7.02,11.88,9.68-2.13.4-4.66.98-7.42,1.77-9.37,2.68-15.77,14.39-15,14,1.68-.84,10.49-.73,15.58-.29-3.16-.16-4.94-.26-4.94-.26,0,0-14.86,10.46-24.17,34.17-4.47,11.38-7.47,21.38-7.97,34.88-.2,5.52-2.5,8.5-7.5,8.5-2.25,0,3.27,3.04,8.62,4.25v.02c-.11-.31-.82,14.26,9.38,35.73,2.38,5.01,7.26,12.33,8,15,.53,1.89.33,3.08.15,3.63-.06.21.06.42.27.46.66.13,2.04.29,3.58-.09.02,0,.04-.01.06-.01l-.06,2.01c-4,1-6,0-6,0-.63-.1.85,3.71,10,6,2.3.58,5.32.82,7.62.93,17.04,16.16,40.04,26.07,65.38,26.07,15.34,0,29.82-3.63,42.64-10.09.52-.03.98,0,1.36.09,8,2,19,2,17,0-3-3-5.9-5.19-6.01-7.51.18-.14.37-.27.55-.4,1.02.95,2.7,1.99,5.46,2.91,3,1,1-1,1-4,0-1.94.27-3.64,1.63-5.45.72-.96,1.75-1.95,3.2-3.03.03-.02.07-.05.11-.08,6.06-4.44,21.06-23.44,23.33-32.5.15-.59.36-1.35.6-2.16,2.63,2.36,6.87,3.45,6.13,1.22-2.24-6.71,1.28-10.21,2-16,.35-2.79.94-6.83,1.26-11.84,9.92,2.18,18.66.78,24.21-4.77,10.37-10.37,6.26-31.87-8.66-51.43Z"/>
  </g>
  <path class="cls-11" d="M95,152.47s2,2-1,5,7,12,7,12c0,0-4.13-4.26,3-7,2.89-1.11,6.92-1.98,12,3,2.02,1.98,7.93,1.32,12,2,6,1,1.41,4.17,0,7-1,2,13.04-3.51,16-4,6-1,13,1,15,1s10-2,9,0,7,8,7,8c0,0,5.11-8.55,6-9,6-3,9,1,12,1s7.72-3.09,10-3c5.53.22,3.05,9.32,4,9,6-2,6-14,6-15s-118-10-118-10Z"/>
  <path class="cls-3" d="M140.16,54.8s3.93-8.88.22-21.38c-2.58-8.68-9.54-13.53-14.99-15.59"/>
  <path class="cls-3" d="M195.27,64.54s3.93-8.88.22-21.38c-2.58-8.68-9.54-13.53-14.99-15.59"/>
  <path class="cls-14" d="M179.6,340.86c16.04,9.19,22.7,30.53,21.05,48.12,0,0-.3-.01-.3-.01.05-13.76-4.52-26.34-12.71-37.27-2.49-3.65-5.31-7.08-8.23-10.61l.19-.23h0Z"/>
  <path class="cls-14" d="M169.58,343.84c5.32.41,8.16,5.37,10.39,9.58.67,1.46,1.26,2.95,1.67,4.48,0,0-.28.12-.28.12-1.61-2.64-3.53-5.05-5.7-7.2-2.42-1.99-4.67-3.93-6.24-6.74,0,0,.16-.25.16-.25h0Z"/>
  <path class="cls-14" d="M261.65,297.97c.98,2.77,2.18,5.3,3.08,8.11,1.29,4.19,1.75,9.02.85,13.42-1.18,4.08-2.25,8.63-3.95,12.53,0,0-.28-.1-.28-.1.74-2.79,1.18-5.65,1.63-8.51.44-2.81,1.08-5.51.69-8.35-.76-5.58-3.56-11.29-2.33-17.09,0,0,.3,0,.3,0h0Z"/>
  <path class="cls-14" d="M249.37,334.05c-3.81-3.11-6.46-6.78-9.28-10.66-2.97-3.66-6.2-7.1-9.68-10.29,0,0,.18-.24.18-.24,4.08,2.53,7.88,5.53,11.28,8.92,3.63,3.25,6.69,7.26,7.75,12.12,0,0-.26.16-.26.16h0Z"/>
</svg>