<?xml version="1.0" encoding="UTF-8" standalone="no"?>
<!DOCTYPE svg PUBLIC "-//W3C//DTD SVG 1.1//EN" "http://www.w3.org/Graphics/SVG/1.1/DTD/svg11.dtd">
<svg width="100%" height="100%" viewBox="0 0 282 410" version="1.1" xmlns="http://www.w3.org/2000/svg" xmlns:xlink="http://www.w3.org/1999/xlink" xml:space="preserve" xmlns:serif="http://www.serif.com/" style="fill-rule:evenodd;clip-rule:evenodd;stroke-linejoin:round;stroke-miterlimit:2;">
    <g transform="matrix(1,0,0,1,0.738095,-7.96946)">
        <path d="M83,350.8C89,355.8 111.26,369.81 113,370.8C120,374.8 132.1,376.82 137,377.8C141.9,378.78 151,381.8 151,386.8C151,391.27 145,407.8 145,407.8L156,411.8L161,386.8C161,386.8 164.04,379.86 166,379.47C171,378.47 200,378.47 200,378.47L230,352.47L83,321.47L85,347.8L83,350.8Z" style="fill:rgb(85,179,108);fill-rule:nonzero;stroke:black;stroke-width:1.5px;"/>
        <path d="M168.26,254.79C168.26,254.79 213.85,249.24 230,258.47C244,266.47 273.07,278.57 276,322.47C278,352.47 231,391.47 216,394.47C204.19,396.83 247,336.47 218,321.47C189,306.47 164.42,296.55 152.71,309.01C141,321.47 139,317.47 136,321.47C133,325.47 168.26,254.79 168.26,254.79Z" style="fill:rgb(216,139,200);fill-rule:nonzero;stroke:black;stroke-width:1.48px;"/>
        <path d="M233.61,276.87C239.75,281.44 246.47,285.76 251.12,292.07C254.29,296.24 256.61,301.11 258.2,306.06C260.74,313.38 261.75,321.34 260.65,328.99L260.35,328.96C260.74,321.29 259.24,313.78 256.35,306.73C254.52,302.03 252.16,297.68 248.79,293.94C245.51,290.13 241.96,286.6 238.42,282.97C236.65,281.13 234.83,279.25 233.38,277.07L233.6,276.87L233.61,276.87Z" style="fill:rgb(240,199,207);fill-rule:nonzero;"/>
        <path d="M135.26,341.57C130,342.47 118.52,328.67 101.26,352.57C84,376.47 65,359.47 59,395.47C57.68,403.36 48,414.47 38,400.47C28.26,386.83 9,346.47 17,324.47C25,302.47 32.41,290.91 51,283.47C71,275.47 89.63,273.88 95,273.47C108,272.47 173,265.47 176,284.47C179,303.47 190,321.47 190,323.47C190,325.47 135.26,341.57 135.26,341.57Z" style="fill:rgb(216,139,200);fill-rule:nonzero;stroke:black;stroke-width:1.48px;"/>
        <path d="M86.93,234.9C83,233.47 43,231.47 29,239.47C16.66,246.52 0,254.47 0,280.47C0,296.59 9,309.47 19,308.47C29,307.47 14,305.47 22,293.47C30,281.47 47.19,274.33 51.6,285.9C56.01,297.47 72.93,303.9 80,302.47C87.07,301.04 99,293.47 99,293.47L86.93,234.9Z" style="fill:rgb(216,139,200);fill-rule:nonzero;stroke:black;stroke-width:1.48px;"/>
        <g>
            <path d="M215.77,315.74C214.73,316.78 213.66,317.79 212.57,318.77C213.29,317.81 214.32,316.82 215.77,315.74Z" style="fill-rule:nonzero;stroke:black;stroke-width:1.83px;"/>
            <g>
                <path d="M214.93,159.68C214.93,159.68 214.88,159.74 214.86,159.77L214.91,159.68L214.93,159.68Z" style="fill-rule:nonzero;"/>
                <path d="M222.78,146.52C222.75,146.59 222.71,146.67 222.68,146.74L222.65,146.74L222.78,146.52Z" style="fill-rule:nonzero;"/>
                <path d="M152.67,48.59C152.03,48.71 151.6,48.72 151.47,48.72C151.87,48.67 152.27,48.62 152.67,48.59Z" style="fill-rule:nonzero;"/>
            </g>
            <path d="M264.75,198.18C267.83,195.22 269.7,191.75 269.98,187.96C270.96,174.95 252.92,163 229.71,161.26C223.9,160.82 218.31,161.07 213.18,161.89C213.76,161.19 214.32,160.49 214.86,159.77L214.91,159.68L214.93,159.68C216.69,159.57 222.46,159.11 219.68,158.49C216.16,157.7 218.97,156.17 220.44,155.72C223.05,154.92 221.44,155.72 227.61,152.65C231.93,150.5 232.16,147.71 232.84,146.1C232.96,145.8 232.66,145.5 232.36,145.62C231.22,146.07 228.96,146.8 226.32,146.79C224.04,146.77 223.08,146.76 222.68,146.74L222.64,146.74L222.77,146.52C228.43,134.11 230.5,119.9 227.9,105.46C223.29,79.79 205.12,59.96 182.1,52.01C180.49,48.81 177.28,45.03 174.68,42.79C173.44,41.72 171.92,40.85 170.68,39.97C170.47,39.82 170.22,40.05 170.33,40.28C171.7,43.24 170.21,48.25 170.21,48.25C170.21,48.25 168.44,43.72 164.51,39.12C159.59,33.35 150.16,30.63 152.09,32.21C154.02,33.78 156.18,36.93 157.44,40.72C158,42.39 159.71,45.29 156.8,47.02C155.15,48 153.66,48.42 152.67,48.59C152.03,48.71 151.6,48.72 151.47,48.72C150.05,48.88 148.62,49.09 147.2,49.35C109.43,56.14 84.3,92.27 91.09,130.04C92.02,135.2 93.49,140.13 95.45,144.76L95.45,144.78C95.57,145.29 96.36,147.94 92.44,148.72C87.59,149.69 82.05,147.28 81.48,146.77C82.07,147.48 88.67,153.79 93.36,156.45C91.23,156.85 88.7,157.43 85.94,158.22C76.57,160.9 70.17,172.61 70.94,172.22C72.62,171.38 81.43,171.49 86.52,171.93C83.36,171.77 81.58,171.67 81.58,171.67C81.58,171.67 66.72,182.13 57.41,205.84C52.94,217.22 49.94,227.22 49.44,240.72C49.24,246.24 46.94,249.22 41.94,249.22C39.69,249.22 45.21,252.26 50.56,253.47L50.56,253.49C50.45,253.18 49.74,267.75 59.94,289.22C62.32,294.23 67.2,301.55 67.94,304.22C68.47,306.11 68.27,307.3 68.09,307.85C68.03,308.06 68.15,308.27 68.36,308.31C69.02,308.44 70.4,308.6 71.94,308.22C71.96,308.22 71.98,308.21 72,308.21L71.94,310.22C67.94,311.22 65.94,310.22 65.94,310.22C65.31,310.12 66.79,313.93 75.94,316.22C78.24,316.8 81.26,317.04 83.56,317.15C100.6,333.31 123.6,343.22 148.94,343.22C164.28,343.22 178.76,339.59 191.58,333.13C192.1,333.1 192.56,333.13 192.94,333.22C200.94,335.22 211.94,335.22 209.94,333.22C206.94,330.22 204.04,328.03 203.93,325.71C204.11,325.57 204.3,325.44 204.48,325.31C205.5,326.26 207.18,327.3 209.94,328.22C212.94,329.22 210.94,327.22 210.94,324.22C210.94,322.28 211.21,320.58 212.57,318.77C213.29,317.81 214.32,316.82 215.77,315.74C215.8,315.72 215.84,315.69 215.88,315.66C221.94,311.22 236.94,292.22 239.21,283.16C239.36,282.57 239.57,281.81 239.81,281C242.44,283.36 246.68,284.45 245.94,282.22C243.7,275.51 247.22,272.01 247.94,266.22C248.29,263.43 248.88,259.39 249.2,254.38C259.12,256.56 267.86,255.16 273.41,249.61C283.78,239.24 279.67,217.74 264.75,198.18Z" style="fill-rule:nonzero;stroke:black;stroke-width:2.5px;"/>
        </g>
        <path d="M64.48,263.12C57.18,263.11 49.37,263.17 42.11,263.42C32.38,263.55 21.83,264.35 14.46,271.4C12.64,273.07 11.02,274.98 9.63,277.05L9.37,276.89C14.53,267.18 23.76,262.55 34.38,261.36C41.92,260.23 49.57,259.61 57.12,261.02C59.63,261.44 62.11,262 64.52,262.82L64.47,263.12L64.48,263.12Z" style="fill:rgb(240,199,207);fill-rule:nonzero;"/>
        <path d="M78.5,310.97C75.21,312.44 72.02,313.96 69.03,315.75C65.85,317.1 62.81,318.76 60.03,320.76C47.36,329.51 44.85,342.46 43.27,356.93C42.82,360.45 42.45,363.91 42.24,367.43C41.57,370.91 41.05,374.42 40.51,377.98C39.85,374.44 39.49,370.86 39.25,367.25C39.46,363.68 39.85,360.08 40.29,356.57C41.21,349.44 42.03,342.21 44.7,335.42C48.67,324.94 57.75,317.27 67.83,312.98C71.35,311.94 74.92,311.24 78.51,310.98L78.5,310.97Z" style="fill:rgb(240,199,207);fill-rule:nonzero;"/>
        <path d="M41.64,322.03C38.74,332.56 35.8,343.43 33.93,354.18C32.11,365.06 32.74,376.26 35.64,386.93L35.35,387.02C30.35,373.75 30.25,359.37 32.6,345.52C33.96,337.2 36.94,329.1 41.35,321.92L41.62,322.04L41.64,322.03Z" style="fill:rgb(240,199,207);fill-rule:nonzero;"/>
        <g transform="matrix(0.0746306,-0.997211,0.997211,0.0746306,26.43,398.61)">
            <ellipse cx="228" cy="185.07" rx="23.62" ry="42.16" style="fill:rgb(191,255,241);"/>
        </g>
        <g transform="matrix(0.707107,-0.707107,0.707107,0.707107,-80.32,227.28)">
            <ellipse cx="234.19" cy="210.59" rx="31.11" ry="55.54" style="fill:rgb(191,255,241);"/>
        </g>
        <path d="M183.06,389.07C177,377.47 131.67,342.58 131.67,342.58C131.67,342.58 138.76,324.2 147.75,323.75C156.74,323.3 180.51,318.11 180.51,318.11C180.51,318.11 205.93,325.85 209.37,334.69C212.81,343.53 217.21,371.34 216.31,373.39C215.41,375.44 214.11,409.54 198.43,416.34L183.05,389.07L183.06,389.07Z" style="fill:rgb(216,139,200);fill-rule:nonzero;stroke:black;stroke-width:1.48px;"/>
        <path d="M151,313.47C151,313.47 174,292.47 179,290.47C184,288.47 205.41,290.36 227.71,301.68C247,311.47 266.72,325.49 274,350.47C281.28,375.45 260,412.47 248,412.47C237.7,412.47 254,398.47 241,377.47C225.7,352.75 200,344.47 188.15,342.12C174.2,339.36 145,326.47 145,326.47L151,313.47Z" style="fill:rgb(216,139,200);fill-rule:nonzero;stroke:black;stroke-width:1.48px;"/>
        <path d="M179.6,340.86C195.64,350.05 202.3,371.39 200.65,388.98L200.35,388.97C200.4,375.21 195.83,362.63 187.64,351.7C185.15,348.05 182.33,344.62 179.41,341.09L179.6,340.86Z" style="fill:rgb(240,199,207);fill-rule:nonzero;"/>
        <path d="M169.58,343.84C174.9,344.25 177.74,349.21 179.97,353.42C180.64,354.88 181.23,356.37 181.64,357.9L181.36,358.02C179.75,355.38 177.83,352.97 175.66,350.82C173.24,348.83 170.99,346.89 169.42,344.08L169.58,343.83L169.58,343.84Z" style="fill:rgb(240,199,207);fill-rule:nonzero;"/>
        <path d="M261.65,297.97C262.63,300.74 263.83,303.27 264.73,306.08C266.02,310.27 266.48,315.1 265.58,319.5C264.4,323.58 263.33,328.13 261.63,332.03L261.35,331.93C262.09,329.14 262.53,326.28 262.98,323.42C263.42,320.61 264.06,317.91 263.67,315.07C262.91,309.49 260.11,303.78 261.34,297.98L261.64,297.98L261.65,297.97Z" style="fill:rgb(240,199,207);fill-rule:nonzero;"/>
        <path d="M249.37,334.05C245.56,330.94 242.91,327.27 240.09,323.39C237.12,319.73 233.89,316.29 230.41,313.1L230.59,312.86C234.67,315.39 238.47,318.39 241.87,321.78C245.5,325.03 248.56,329.04 249.62,333.9L249.36,334.06L249.37,334.05Z" style="fill:rgb(240,199,207);fill-rule:nonzero;"/>
        <path d="M144.79,330.32L118.93,350.85" style="fill:none;fill-rule:nonzero;stroke:black;stroke-width:5.32px;"/>
        <g transform="matrix(0.364714,-0.931119,0.931119,0.364714,-254.14,324.67)">
            <ellipse cx="110.86" cy="348.58" rx="4.02" ry="10.65"/>
        </g>
        <path d="M89.93,310.37L64.07,330.9" style="fill:none;fill-rule:nonzero;stroke:black;stroke-width:5.32px;"/>
        <g transform="matrix(0.364714,-0.931119,0.931119,0.364714,-270.42,260.92)">
            <ellipse cx="56" cy="328.64" rx="4.02" ry="10.65"/>
        </g>
        <path d="M72.17,304.35C61.79,290.11 55.28,272.89 54.18,254.2C55.03,254.23 55.82,254.16 56.5,253.97C61.32,252.65 68.84,258.06 71,257.47C76.5,255.97 79,237.47 79,245.47L78,257.47C80,256.47 103.5,268.97 115,266.47C119.89,265.41 122,263.71 122,261.47C122,258.47 123.5,259.97 124,267.47C124.36,272.84 143.68,275.63 150,272.47C156,269.47 167,272.47 170,276.47C173,280.47 171.47,277.2 175,277.47C181.5,277.97 183,251.47 183,258.47C183,261.3 185,277.47 186,277.47C186.92,277.47 190.47,272.33 190.94,269.98C191.08,271.88 191.72,275.51 194,276.47C196.91,277.7 201.29,277.47 208,277.47C217,277.47 212.99,277.36 221,276.47C230,275.47 231,274.47 231,274.47C231,274.47 237,274.47 238,278.47C238.13,278.97 238.36,279.45 238.67,279.91C233.86,293.66 225.97,305.96 215.83,315.99C214.79,317.03 213.72,318.04 212.63,319.02C210.06,321.34 207.36,323.52 204.54,325.56C204.36,325.69 204.17,325.82 203.99,325.96C204.1,328.28 207,330.47 210,333.47C212,335.47 201,335.47 193,333.47C192.62,333.38 192.16,333.35 191.64,333.38C178.82,339.84 164.34,343.47 149,343.47C123.66,343.47 100.66,333.56 83.62,317.4C81.32,317.29 78.3,317.05 76,316.47C66.85,314.18 65.37,310.37 66,310.47C66,310.47 68,311.47 72,310.47L72.17,304.35Z" style="fill:rgb(86,48,0);fill-rule:nonzero;stroke:black;stroke-width:1.5px;"/>
        <path d="M213.75,178.95C187.55,177.59 118.31,173.88 91.99,172.47C107.87,160.54 127.6,153.47 149,153.47C174.03,153.47 196.78,163.14 213.75,178.95Z" style="fill:rgb(86,48,0);fill-rule:nonzero;"/>
        <path d="M191,269.47C191,269.62 190.99,269.79 190.94,269.98C190.86,268.82 190.97,268.31 191,269.47Z" style="fill:rgb(86,48,0);fill-rule:nonzero;"/>
        <path d="M191,269.47C191,269.62 190.99,269.79 190.94,269.98C190.86,268.82 190.97,268.31 191,269.47Z" style="fill:rgb(255,222,42);fill-rule:nonzero;"/>
        <path d="M242.23,273.62C242.26,273.7 242.26,273.78 242.23,273.85C242,274.55 240.74,278.33 239.87,281.25C239.63,282.06 239.42,282.82 239.27,283.41C237,292.47 222,311.47 215.94,315.91C215.9,315.94 215.86,315.97 215.83,315.99C214.38,317.07 213.35,318.06 212.63,319.02C211.27,320.83 211,322.53 211,324.47C211,327.47 213,329.47 210,328.47C207.24,327.55 205.56,326.51 204.54,325.56C204.37,325.4 204.21,325.24 204.08,325.09C203.61,324.56 203.35,324.08 203.2,323.67C202.91,322.94 203,322.47 203,322.47C203,322.47 200,324.47 199,324.47C198,324.47 199,321.47 199,318.47C199,315.47 200,308.47 199,310.47C198,312.47 195.11,317.81 194,319.47C192,322.47 187,324.47 186,324.47C185,324.47 173,318.47 165,321.47C162.56,322.38 157.58,321.71 156.3,321.52C156.12,321.49 156,321.34 156,321.16L155.5,312.97C155.5,312.57 154.63,312.59 154.5,312.97C153.55,315.66 151.19,320.97 150.5,320.97C149.5,320.97 128,310.47 121,313.47C119.07,314.29 104.94,311.82 103.18,311.5C103.06,311.48 102.97,311.4 102.92,311.3L97.96,300.55C97.77,300.14 97.15,300.3 97.19,300.75L98,310.47L96.9,310.22C96.9,310.22 96.86,310.21 96.84,310.2C92.89,308.36 88.57,307.45 84.21,307.56C81.59,307.62 78.65,307.73 76.21,307.93C75.78,307.95 75.37,307.99 74.98,308.02C74.36,308.08 73.79,308.15 73.29,308.23C72.79,308.3 72.35,308.38 72,308.47C70.45,308.85 69.08,308.69 68.42,308.57C68.21,308.53 68.08,308.32 68.15,308.11C68.32,307.56 68.53,306.36 68,304.47C67.26,301.8 62.38,294.48 60,289.47C49.8,268 50.51,253.43 50.61,253.74L50.61,253.72L54.02,247.02C54,247.5 54,247.98 54,248.47C54,250.28 54.05,252.08 54.16,253.86C54.17,254.05 54.33,254.2 54.52,254.21C55.24,254.21 55.91,254.14 56.5,253.97C61.32,252.65 68.84,258.06 71,257.47C76.5,255.97 79,237.47 79,245.47L78.04,257.02C78.02,257.22 78.17,257.4 78.37,257.41C81.97,257.5 103.99,268.86 115,266.47C119.89,265.41 122,263.71 122,261.47C122,258.47 123.5,259.97 124,267.47C124.36,272.84 143.68,275.63 150,272.47C156,269.47 167,272.47 170,276.47C173,280.47 171.47,277.2 175,277.47C181.5,277.97 183,251.47 183,258.47C183,261.3 185,277.47 186,277.47C186.76,277.47 189.32,273.96 190.45,271.41C190.59,271.09 191.07,271.15 191.13,271.5C191.46,273.4 192.24,275.73 194,276.47C196.91,277.7 201.29,277.47 208,277.47C217,277.47 212.99,277.36 221,276.47C228.7,275.61 230.54,274.76 230.92,274.53C230.98,274.49 231.05,274.47 231.13,274.47C231.99,274.5 237.09,274.81 238.01,278.47C238.14,278.97 238.37,279.45 238.68,279.91C239.71,276.99 240.59,274.01 241.32,270.97L242.24,273.62L242.23,273.62Z" style="fill:rgb(255,222,42);fill-rule:nonzero;stroke:black;stroke-width:1.5px;"/>
        <path d="M248,266.47C247.28,272.26 243.76,275.76 246,282.47C246.74,284.7 242.5,283.61 239.87,281.25C239.41,280.84 239,280.39 238.67,279.91C238.36,279.45 238.13,278.97 238,278.47C237,274.47 231,274.47 231,274.47C231,274.47 230,275.47 221,276.47C212.99,277.36 217,277.47 208,277.47C201.29,277.47 196.91,277.7 194,276.47C191.72,275.51 191.08,271.88 190.94,269.98C190.99,269.79 191,269.62 191,269.47C190.97,268.31 190.86,268.82 190.94,269.98C190.47,272.33 186.92,277.47 186,277.47C185,277.47 183,261.3 183,258.47C183,251.47 181.5,277.97 175,277.47C171.47,277.2 173,280.47 170,276.47C167,272.47 156,269.47 150,272.47C143.68,275.63 124.36,272.84 124,267.47C123.5,259.97 122,258.47 122,261.47C122,263.71 119.89,265.41 115,266.47C103.5,268.97 80,256.47 78,257.47L79,245.47C79,237.47 76.5,255.97 71,257.47C68.84,258.06 61.32,252.65 56.5,253.97C55.82,254.16 55.03,254.23 54.18,254.2C53.07,254.18 51.85,254 50.62,253.72C45.27,252.51 39.75,249.47 42,249.47C47,249.47 49.3,246.49 49.5,240.97C50,227.47 53,217.47 57.47,206.09C66.78,182.38 81.64,171.92 81.64,171.92C81.64,171.92 85.52,172.13 91.99,172.47C118.31,173.88 187.55,177.59 213.75,178.95C220.09,179.28 223.91,179.48 224,179.47C224.62,179.47 237.01,193.51 245,218.47C251.95,240.19 249,258.47 248,266.47Z" style="fill:rgb(86,48,0);fill-rule:nonzero;"/>
        <path d="M191,269.47C191,269.62 190.99,269.79 190.94,269.98C190.86,268.82 190.97,268.31 191,269.47Z" style="fill:rgb(86,48,0);fill-rule:nonzero;"/>
        <g>
            <path d="M214.5,159.97L222.5,146.97" style="fill:none;fill-rule:nonzero;stroke:black;stroke-width:1.5px;"/>
            <path d="M222.83,146.77C220.69,151.47 218.03,155.92 214.92,160.02" style="fill:rgb(255,222,42);fill-rule:nonzero;"/>
            <path d="M152.73,48.84C152.09,48.96 151.66,48.97 151.53,48.97C151.93,48.92 152.33,48.87 152.73,48.84Z" style="fill:rgb(255,222,42);fill-rule:nonzero;"/>
            <path d="M232.42,145.87C232.72,145.75 233.02,146.05 232.9,146.35C232.23,147.96 231.99,150.75 227.68,152.9C221.51,155.97 223.12,155.17 220.51,155.97C219.03,156.42 216.23,157.95 219.75,158.74C222.54,159.36 216.72,159.82 214.98,159.93L214.93,160.02C204.76,173.42 189.73,183.19 171.86,186.4C144.72,191.28 118.43,179.69 103.26,158.76C100.61,158.51 96.4,158.02 95.01,157.47C90.24,155.56 81.68,147.31 81.51,146.97C81.77,147.37 87.51,149.97 92.51,148.97C96.43,148.19 95.64,145.54 95.52,145.03L95.52,145.01C93.56,140.38 92.09,135.45 91.16,130.29C84.37,92.52 109.5,56.39 147.27,49.6C148.69,49.34 150.12,49.13 151.54,48.97C151.67,48.97 152.1,48.96 152.74,48.84C153.73,48.67 155.22,48.25 156.87,47.27C159.78,45.54 158.07,42.64 157.51,40.97C156.25,37.18 154.09,34.03 152.16,32.46C150.23,30.88 159.65,33.6 164.58,39.37C168.51,43.97 170.28,48.5 170.28,48.5C170.28,48.5 171.76,43.5 170.39,40.53C170.28,40.3 170.54,40.07 170.74,40.22C171.98,41.1 173.51,41.97 174.75,43.04C177.35,45.28 180.56,49.06 182.17,52.26C205.19,60.21 223.36,80.04 227.97,105.71C230.57,120.15 228.5,134.36 222.84,146.77L222.71,146.99C223.08,147.01 224.03,147.02 226.39,147.04C229.03,147.04 231.28,146.32 232.43,145.87L232.42,145.87Z" style="fill:rgb(255,222,42);fill-rule:nonzero;"/>
        </g>
        <path d="M102,156.47C102,156.47 115.23,164.02 131.69,167.36C147,170.47 155.01,170.71 170,170.19C191,169.47 208,165.47 208,165.47L212,166.47C215,167.47 230.65,176.73 233,179.47C239,186.47 233,183.47 230,182.47C228.66,182.02 227,181.47 222,181.47C220.21,181.47 215.39,182.15 214,182.47C211.73,182.99 210.99,182.37 212,184.47C214.98,190.64 218,193.47 225,202.47C225.84,203.55 214.49,203.96 212,203.47C206.36,202.36 201,199.47 198,197.47C195.37,195.72 193,194.47 192,193.47C191.18,192.65 195.96,201.63 194,210.47C192.04,219.31 179.84,227.46 180,226.47C183,208.47 174,198.47 171,193.47C169.25,190.55 167.72,189.77 167.23,191.93C166.79,193.9 162.13,199.86 163,195.47C163.37,193.61 159.3,192.47 158,192.47C155.83,192.47 163,213.47 164,214.47C165,215.47 147.52,208.99 142,203.47C136,197.47 131.25,181.36 132,183.47C135.73,193.88 117.89,201.41 111,202.47C105.04,203.39 86.36,202.33 91,200.47C101,196.47 100.36,186.55 99,182.47C98,179.47 96.16,178.47 93,178.47C91.667,178.47 90,179.137 88,180.47C86.54,181.44 91.25,172.85 89,172.47C85.05,171.81 73,171.47 71,172.47C70.22,172.86 76.63,161.15 86,158.47C93,156.47 98.5,155.8 99.82,156.05L102,156.47Z" style="fill:rgb(251,255,187);fill-rule:nonzero;"/>
        <path d="M140.16,54.8C140.16,54.8 144.09,45.92 140.38,33.42C137.8,24.74 130.84,19.89 125.39,17.83" style="fill-rule:nonzero;"/>
        <path d="M195.27,64.54C195.27,64.54 199.2,55.66 195.49,43.16C192.91,34.48 185.95,29.63 180.5,27.57" style="fill-rule:nonzero;"/>
        <path d="M95,152.47C95,152.47 97,154.47 94,157.47C91,160.47 101,169.47 101,169.47C101,169.47 96.87,165.21 104,162.47C106.89,161.36 110.92,160.49 116,165.47C118.02,167.45 123.93,166.79 128,167.47C134,168.47 129.41,171.64 128,174.47C127,176.47 141.04,170.96 144,170.47C150,169.47 157,171.47 159,171.47C161,171.47 169,169.47 168,171.47C167,173.47 175,179.47 175,179.47C175,179.47 180.11,170.92 181,170.47C187,167.47 190,171.47 193,171.47C196,171.47 200.72,168.38 203,168.47C208.53,168.69 206.05,177.79 207,177.47C213,175.47 213,163.47 213,162.47C213,161.47 95,152.47 95,152.47Z" style="fill:rgb(255,222,42);fill-rule:nonzero;"/>
        <circle cx="181.85" cy="96.75" r="13"/>
        <path d="M125.98,229.52L120.69,201.42" style="fill:none;fill-rule:nonzero;stroke:black;stroke-width:5.32px;stroke-linecap:round;"/>
        <path d="M177.5,206.97L159.92,237.95" style="fill:none;fill-rule:nonzero;stroke:black;stroke-width:5.32px;stroke-linecap:round;"/>
        <path d="M107.49,268.44L115.67,296.94" style="fill:none;fill-rule:nonzero;stroke:black;stroke-width:5.32px;stroke-linecap:round;"/>
        <path d="M162.83,275.3L143.83,302.3" style="fill:none;fill-rule:nonzero;stroke:black;stroke-width:5.32px;stroke-linecap:round;"/>
        <circle cx="134.69" cy="86.61" r="13"/>
        <g transform="matrix(0.835424,-0.549606,0.549606,0.835424,-108.58,110.45)">
            <ellipse cx="130.17" cy="236.55" rx="4.02" ry="10.65"/>
        </g>
        <g transform="matrix(0.866025,-0.5,0.5,0.866025,-100.11,108.81)">
            <ellipse cx="152.99" cy="241.21" rx="10.65" ry="4.02"/>
        </g>
        <g transform="matrix(0.735979,-0.677004,0.677004,0.735979,-172.24,160.75)">
            <ellipse cx="119.99" cy="301.21" rx="4.02" ry="10.65"/>
        </g>
        <g transform="matrix(0.928745,-0.37072,0.37072,0.928745,-103.13,72.57)">
            <ellipse cx="137.2" cy="304.53" rx="10.65" ry="4.02"/>
        </g>
        <g transform="matrix(0.488317,-0.872667,0.872667,0.488317,45.8325,115.61)">
            <ellipse cx="122.61" cy="16.83" rx="4.8" ry="15.99"/>
        </g>
        <g transform="matrix(0.763909,-0.645324,0.645324,0.763909,-14.85,144.3)">
            <ellipse cx="189.79" cy="92.44" rx="2.67" ry="4.5" style="fill:white;"/>
        </g>
        <g transform="matrix(0.678544,-0.734559,0.734559,0.678544,-36.78,117.56)">
            <ellipse cx="115.94" cy="100.8" rx="4.71" ry="7.66" style="fill:rgb(255,156,122);"/>
        </g>
        <g transform="matrix(0.763909,-0.645324,0.645324,0.763909,-19.72,111.04)">
            <ellipse cx="141.9" cy="82.48" rx="2.67" ry="4.5" style="fill:white;"/>
        </g>
        <g transform="matrix(0.9486,-0.316477,0.316477,0.9486,-27.11,67.76)">
            <ellipse cx="195.04" cy="117.33" rx="7.66" ry="4.71" style="fill:rgb(255,156,122);"/>
        </g>
        <g transform="matrix(1.80608,0,0,1.80608,-129.338,-80.5419)">
            <path d="M150.79,102.81C150.79,102.81 151.09,106.8 154.93,108.01C159.24,109.36 161.98,104.99 161.98,104.99" style="fill-rule:nonzero;"/>
        </g>
        <g transform="matrix(0.5,-0.866025,0.866025,0.5,63.6625,166.29)">
            <ellipse cx="176.94" cy="26.1" rx="4.8" ry="15.99"/>
        </g>
    </g>
</svg>
